<?xml version="1.0" encoding="UTF-8"?>
<!DOCTYPE svg PUBLIC "-//W3C//DTD SVG 1.1//EN" "http://www.w3.org/Graphics/SVG/1.1/DTD/svg11.dtd">
<!-- Creator: CorelDRAW 2020 (64 Bit) -->
<svg xmlns="http://www.w3.org/2000/svg" xml:space="preserve" width="308.287mm" height="206.674mm" version="1.1" style="shape-rendering:geometricPrecision; text-rendering:geometricPrecision; image-rendering:optimizeQuality; fill-rule:evenodd; clip-rule:evenodd"
viewBox="0 0 11484.49 7699.15" preserveAspectRatio="none"
 xmlns:xlink="http://www.w3.org/1999/xlink"
 xmlns:xodm="http://www.corel.com/coreldraw/odm/2003">
 <defs>
  <style type="text/css">
   <![CDATA[
    .fil0 {fill:#F2F9FB;fill-rule:nonzero}
   ]]>
  </style>
 </defs>
 <g id="Camada_x0020_1">
  <metadata id="CorelCorpID_0Corel-Layer"/>
  <path class="fil0" d="M-0 5797.25c0,-1572.33 0,-3144.67 0,-4717 0,-596.45 1028.68,-1080.24 2296.89,-1080.24 2296.9,0 4593.8,0 6890.7,0 1268.21,0 2296.89,483.8 2296.89,1080.24 0,1572.33 0,3144.67 0,4717 0,596.45 -1028.69,1080.24 -2296.89,1080.24 -1435.56,0 -2871.12,0 -4306.68,0 -1088.03,273.89 -2176.06,547.77 -3264.09,821.66 226.69,-273.89 453.39,-547.77 680.08,-821.66 0,0 0,0 0,0 -1268.21,0 -2296.89,-483.8 -2296.89,-1080.24z"/>
 </g>
</svg>
