<?xml version="1.0" encoding="UTF-8"?>
<!DOCTYPE svg PUBLIC "-//W3C//DTD SVG 1.1//EN" "http://www.w3.org/Graphics/SVG/1.1/DTD/svg11.dtd">
<!-- Creator: CorelDRAW 2020 (64 Bit) -->
<svg xmlns="http://www.w3.org/2000/svg" xml:space="preserve" width="69.2604mm" height="171.753mm" version="1.1" style="shape-rendering:geometricPrecision; text-rendering:geometricPrecision; image-rendering:optimizeQuality; fill-rule:evenodd; clip-rule:evenodd"
viewBox="0 0 2263.51 5613.08"
 xmlns:xlink="http://www.w3.org/1999/xlink"
 xmlns:xodm="http://www.corel.com/coreldraw/odm/2003">
 <defs>
  <style type="text/css">
   <![CDATA[
    .str0 {stroke:#F9E8DD;stroke-width:34.59;stroke-miterlimit:22.9256}
    .str1 {stroke:#F9E8DD;stroke-width:34.59;stroke-miterlimit:10}
    .fil7 {fill:none;fill-rule:nonzero}
    .fil0 {fill:#00AFA3}
    .fil3 {fill:#F89E50;fill-rule:nonzero}
    .fil2 {fill:#F9E8DD;fill-rule:nonzero}
    .fil4 {fill:#D268A7;fill-rule:nonzero}
    .fil6 {fill:#00AFA3;fill-rule:nonzero}
    .fil1 {fill:#006F73;fill-rule:nonzero}
    .fil5 {fill:#075152;fill-rule:nonzero}
   ]]>
  </style>
 </defs>
 <g id="Camada_x0020_1">
  <metadata id="CorelCorpID_0Corel-Layer"/>
  <g id="_353255163936">
   <polygon class="fil0" points="2023.59,34.32 2243.5,135.93 1826.02,1128.71 1606.11,1027.1 "/>
   <polygon class="fil0" points="113.1,3793.75 1280.74,4129.78 857.32,5601.13 16.8,5601.13 16.8,4128.38 "/>
   <polygon class="fil1" points="1745.34,1768.83 1524.91,2692.98 1710.74,2692.01 1868.67,1780.74 "/>
   <path class="fil1" d="M352.03 1692.71c0,0 -221.1,880.97 -145.42,1025.59l-189.81 919.91 0 -1623.43 335.23 -322.06z"/>
   <path class="fil2" d="M389.73 1582.97c0,0 -260.89,835.72 -189.78,1139.02 0,0 672.89,-706.61 738.26,-973.08 65.37,-266.48 -83.63,-143.45 -83.63,-143.45l-358.07 -110.56 -106.78 88.07z"/>
   <polygon class="fil3" points="400.59,1577.38 394.13,1665.03 531.44,1855.85 808.71,1882.45 918.54,1827.26 920.78,1652.92 "/>
   <path class="fil3" d="M384.08 1413.95l22.86 193.27 140.22 122.5 181.11 44.64 202.88 -68.55 166.91 -164.79 86.24 -47.75 4.48 -18.85c0,0 211.17,-356.8 221.58,-357.6 10.4,-0.8 -95.92,-243.99 -95.92,-243.99l-98.2 -180.93 -256.11 -84.27 -103.53 -52.58 -202.5 55.61 -56.12 124.31 -169.49 247.3 -67.38 425.06 22.98 6.61z"/>
   <path class="fil2" d="M531.59 1021.87c0,0 76.15,179.29 216.34,114.46 0,0 -5.21,-159.65 -222.29,-106.83l5.96 -7.63z"/>
   <path class="fil1" d="M669.78 1028.9c0,0 -81.69,88.97 21.45,112.27 0,0 45.72,-2.83 53.82,-23.72 0,0 -9.19,-66.42 -75.26,-88.55z"/>
   <path class="fil2" d="M886.67 1163.23c0,0 76.16,179.3 216.35,114.47 0,0 -5.21,-159.64 -222.3,-106.82l5.95 -7.65z"/>
   <path class="fil1" d="M1024.87 1170.28c0,0 -81.68,88.95 21.45,112.27 0,0 45.71,-2.84 53.82,-23.74 0,0 -9.19,-66.41 -75.26,-88.53z"/>
   <polygon class="fil1" points="476.4,1365.84 693.93,1271.63 662.32,1303.61 "/>
   <polygon class="fil1" points="827.32,1340.01 881.19,1542.07 815.74,1393.27 "/>
   <path class="fil1" d="M1179.71 815.47c-79.18,-88.1 -98.87,-206.75 -44.01,-265 54.89,-58.22 163.57,-34.03 242.75,54.05 79.19,88.08 98.89,206.72 44.02,264.97 -54.88,58.26 -163.56,34.06 -242.76,-54.01z"/>
   <path class="fil1" d="M435.02 1432.24c-8.32,-8.92 49.39,-74.03 49.39,-74.03 0,0 149.38,47 182.47,4.38l72.67 28.93c0,0 67.03,115.58 123.72,99.81 56.68,-15.79 1.56,120.02 1.56,120.02l-223.81 -127.83c0,0 -175.36,-18.38 -206.01,-51.27z"/>
   <polygon class="fil4" points="607.71,1334.67 672.22,1441.69 827.92,1428.04 853.78,1056.06 "/>
   <path class="fil1" d="M523.97 989.79l32.05 -52.7c0,0 107.26,-22.21 150.53,-0.91 0,0 107.56,75.19 126.05,53.97 18.48,-21.22 -33.8,56.63 -33.8,56.63 0,0 -101.76,-74.52 -143.34,-72.71l-131.48 15.73z"/>
   <path class="fil1" d="M1170.49 1230.85l6.92 -63.29c0,0 -76.97,-88.1 -127.71,-99.39 0,0 -140.57,-10.17 -142.52,-39.3 -1.96,-29.14 -7.99,67.55 -7.99,67.55 0,0 135.18,6.93 169.47,35.63l101.84 98.8z"/>
   <path class="fil1" d="M561.8 1510.56l157.92 58.31 -67.51 44.9 -19.42 67.48 51.3 70.38 149.31 -21.36 71.98 -35.05c0,0 248.11,-233.14 270.1,-282.57 22,-49.43 -33.87,174.61 -33.87,174.61l-217.31 143.42 -234.81 73.97 -127.11 -10.83 -121.38 -116.42 -74.61 -120.15 -9.38 -157.11 47.29 -333.82 -2.88 385.2 22.29 83.63 60.15 94.51 53.78 15.48 44 -51.7 -19.82 -82.9z"/>
   <polygon class="fil1" points="1133.35,1592.7 1219.26,1457.13 1226.96,1391.42 1128.18,1501.15 "/>
   <path class="fil1" d="M918.54 1827.26c0,0 277.77,372 351.24,384.09 73.45,12.09 242.21,699.51 242.21,699.51l246.13 -1138.36 177.23 13.2c0,0 40.69,-15.61 57.23,-41.59 16.53,-26 -378.38,1725.01 -378.38,1725.01l-157.5 27.02 -472.49 -1031.64 -470.22 1964.18 -497.2 -222.14 0 -562.02 195.4 -935.5 706.34 -881.76z"/>
   <path class="fil1" d="M1434.55 1089.61l-2.22 -61.37 -40.39 -205.24c-56.92,-274.51 -509.77,-309.93 -509.77,-309.93l-237.31 83.56c0,0 -77.02,152.45 -83.1,162.08 -6.11,9.65 -148.36,169.9 -148.36,169.9l-34.33 145.32 12.19 54.15 -3.51 19.15 7.61 -17.71 220.38 -385.63 39.41 -113.94 50.97 -4.31 167.21 -5.03 54.25 64.96 149.05 58.09 35.66 -8.73 37.91 64.06 44.27 134.22 19.34 -9.63 19.79 138.56 109.18 23.83 -126.73 233.07 -44.23 69.11 1.04 146 7.07 -20.53 88.31 -41.92 163.4 -337.38 2.92 -44.72z"/>
   <path class="fil1" d="M353.22 1703.29c0,0 -169.61,32.56 -336.42,53.54l0 319.16 336.42 -372.71zm-336.42 1713.2l0.76 0.39c0,0 107.98,-398.89 176.2,-344.41 23.69,18.92 -58.99,-19.56 -176.96,-77.84l0 421.86z"/>
   <path class="fil5" d="M340.87 1649.7c-15.27,14.84 -94.62,243.16 -94.62,243.16 0,0 691.72,18.34 684.29,27.64 -7.43,9.33 -161.28,257.03 -161.28,257.03l-428.39 -527.83z"/>
   <path class="fil2" d="M166.06 3398.06c0,0 42.69,-46.09 51.74,-93.27 0,0 -29.86,9.39 -52.27,0.74 0,0 -22.01,76.51 0.53,92.53z"/>
   <g>
    <polygon class="fil6 str0" points="1886.4,376.82 2080.43,444.41 "/>
    <g>
     <path class="fil6" d="M2069.23 466.72l-213.22 581.16c0,0 58.5,-40.52 89.09,-24.66 30.58,15.83 124.14,-556.5 124.14,-556.5z"/>
     <path class="fil7 str1" d="M1856.01 1047.88c0,0 58.5,-40.52 89.09,-24.66 30.58,15.83 124.14,-556.5 124.14,-556.5"/>
     <polyline class="fil7 str1" points="2069.23,466.72 2239.85,118.1 2007.14,22.95 1874.76,410.75 "/>
     <path class="fil6" d="M1623.14 993.96l251.62 -583.2c-81.52,159.16 -339.51,473.38 -312.67,502.24 26.84,28.85 61.05,80.96 61.05,80.96z"/>
     <path class="fil7 str1" d="M1874.76 410.75c-81.52,159.16 -339.51,473.38 -312.67,502.24 26.84,28.85 61.05,80.96 61.05,80.96"/>
     <polygon class="fil6 str0" points="1931.13,174.23 1883.29,177.52 1879.66,308.62 1907.43,303.82 1953.49,176.49 "/>
     <polygon class="fil6 str0" points="2180.79,245.7 2205.76,320.15 2138.56,400.56 2113.77,381.83 "/>
    </g>
    <path class="fil6 str0" d="M1780.02 473.25c-10.83,37.65 -44.33,61.05 -74.78,52.28 -30.49,-8.77 -46.41,-46.4 -35.57,-84.04 10.83,-37.64 44.31,-61.06 74.8,-52.28 30.46,8.77 46.39,46.39 35.55,84.04z"/>
    <path class="fil6 str0" d="M1605.26 725.21c-10.83,37.64 -44.31,61.06 -74.78,52.28 -30.49,-8.77 -46.4,-46.4 -35.57,-84.04 10.83,-37.64 44.3,-61.05 74.8,-52.28 30.48,8.77 46.39,46.4 35.55,84.04z"/>
    <path class="fil6 str0" d="M2191.75 616.83c-10.83,37.65 -44.31,61.06 -74.79,52.28 -30.48,-8.77 -46.4,-46.4 -35.56,-84.04 10.83,-37.65 44.32,-61.05 74.8,-52.28 30.48,8.77 46.38,46.39 35.55,84.04z"/>
    <path class="fil6 str0" d="M2133.77 901.9c-14.45,50.2 -50.85,83.78 -81.34,75 -30.47,-8.77 -43.45,-56.56 -29.01,-106.76 14.45,-50.19 50.85,-83.77 81.32,-75 30.49,8.77 43.47,56.57 29.03,106.76z"/>
    <path class="fil6" d="M16.8 5511.36l963.87 -2723.66c0,0 -72.78,201.46 -379.47,246.83 0,0 -334.17,69.83 -584.4,328.24l0 2148.59z"/>
    <path class="fil7 str1" d="M980.66 2787.69c0,0 -72.78,201.46 -379.47,246.83 0,0 -334.17,69.83 -584.4,328.24"/>
    <path class="fil6" d="M1212.36 2904.07l-837.64 2697.06 926.08 0c-0.29,-1.05 -0.55,-2.09 -0.84,-3.14 0,0 -277.7,-155.18 -208.14,-533.13 0,0 77.95,-436 328.94,-412.43 0,0 208.14,-257.93 228.27,-627 0,0 86.12,-299.64 -398.19,-870.43 0,0 -76.84,-97.18 -38.46,-250.91z"/>
    <path class="fil7 str1" d="M1300.81 5601.13c-0.29,-1.05 -0.55,-2.09 -0.84,-3.14 0,0 -277.7,-155.18 -208.14,-533.13 0,0 77.95,-436 328.94,-412.43 0,0 208.14,-257.93 228.27,-627 0,0 86.12,-299.64 -398.19,-870.43 0,0 -76.84,-97.18 -38.46,-250.91"/>
    <path class="fil7 str1" d="M805.91 4564.89c0,0 -3.24,103.15 -71.66,61.85 0,0 -30.03,-67.31 25.88,-100.64 0,0 72.56,-58.96 128.71,24.93 0,0 64.68,107.92 -16.1,356.47 0,0 -150.69,373.58 -2.46,437.86 0,0 44.85,-5.63 38.35,-26.03 0,0 -49.66,-42.09 -8.79,-98.27 0,0 34.32,-33.36 68.51,-1.91 0,0 51.64,67.37 -32.49,145.08 0,0 -106.96,71.14 -180.82,-101.45 0,0 -43.41,-117.5 39.34,-319.14 0,0 93.9,-261.5 72,-346.81 0,0 -33.67,-88.16 -60.48,-31.94"/>
    <path class="fil7 str1" d="M219.51 4414.93c0,0 -52.08,89.1 27.82,90.48 0,0 61.22,-41.06 31.58,-99 0,0 -30.12,-88.52 -122.28,-47.32 0,0 -77.17,39.26 -139.83,197.29m0 239.03c4.12,-16.81 7.88,-34.64 11.14,-53.55 0,0 59.45,-271.4 123.36,-332.03 0,0 75.39,-56.78 68.21,5.1"/>
    <line class="fil7 str1" x1="79.57" y1="5383" x2="16.8" y2= "5601.13" />
    <line class="fil7 str1" x1="450.28" y1="5601.13" x2="481.66" y2= "5509.96" />
    <path class="fil7 str1" d="M481.66 5509.96c0,0 -174.44,0.41 -402.09,-126.96"/>
    <polygon class="fil6 str0" points="1623.14,993.96 425.47,4276.34 790.88,4374.48 1856,1047.9 "/>
   </g>
   <path class="fil3" d="M279.23 3312.13l-108.4 -3.63c-8,-4.16 -12.9,-5.83 -12.9,-5.83l-42.72 -146.6 164.06 -81.11c67.11,6.62 382.92,-43.07 382.92,-43.07 289.8,9.27 231.58,325.49 231.58,325.49 -24.17,46.91 -43.1,16.27 -43.1,16.27 -47.18,-334.29 -223.18,-194.4 -223.18,-194.4 -16.64,14.7 8.62,39.99 8.62,39.99 109.49,51.31 86.03,331.3 86.03,331.3 -13.96,58.77 -35.11,66.73 -75.88,75.76 -0.97,0.21 -1.92,0.34 -2.83,0.39 -37.17,1.97 -21.23,-132.42 -21.23,-132.42 0.68,-220.65 -130.71,-203.02 -130.71,-203.02 187.18,125.21 51.5,377.53 51.5,377.53 -35.5,40.67 -64.07,9 -64.07,9 -28.78,-20.43 17.21,-136.28 17.21,-136.28 20.1,-117.35 -14.32,-166.94 -57.54,-186.28 19.97,80.24 -44.93,224.57 -66.92,270.08 -0.14,2.03 -0.22,3.13 -0.22,3.13 -2.3,4.19 -4.58,7.83 -6.82,11l-0.01 0.02c-0,0.02 -0.02,0.02 -0.02,0.03 -8.11,11.49 -15.64,16.51 -22.4,17.63 -27.55,13.9 -32.49,-20.1 -33.22,-27.24 16.09,-47.29 93.82,-294.21 -29.76,-317.74z"/>
   <path class="fil2" d="M174.29 3068.2l53.18 32.35c0,0 -105.13,267.28 -75.91,291.53 29.23,24.25 -114.34,-35.16 -112.53,-41.43 1.8,-6.27 83.3,-283.86 135.26,-282.45z"/>
   <path class="fil2" d="M1763.02 1722.25l-4.9 50.25 172.66 12.86c0,0 57.53,-18.54 61.8,-41.26 4.27,-22.74 -40.15,-64.94 -58.38,-56.61l-171.18 34.75z"/>
   <path class="fil3" d="M1740.68 1627.69l24.93 105.56c5.66,7.03 8.27,11.5 8.27,11.5l152.15 12.98 47.16 -176.85c-19.71,-64.48 -33.28,-383.89 -33.28,-383.89 -66.24,-282.28 -364.77,-162.85 -364.77,-162.85 -41.23,32.95 -7.45,45.46 -7.45,45.46 337.04,-19.68 234.61,180.47 234.61,180.47 -11.14,19.2 -40.91,-0.58 -40.91,-0.58 -71.89,-97.23 -341.76,-19 -341.76,-19 -54.89,25.27 -58.49,47.57 -59.32,89.34 -0.01,0.99 0.05,1.94 0.17,2.84 5.4,36.83 134.02,-5.3 134.02,-5.3 216.2,-44.19 224.81,88.09 224.81,88.09 -159.65,-158.8 -380.27,23.98 -380.27,23.98 -32.86,42.81 3.83,64.57 3.83,64.57 25.7,24.2 130.2,-43.74 130.2,-43.74 111.07,-42.84 166.49,-18.87 193.95,19.69 -82.59,-3.76 -211.29,88.32 -251.56,118.86 -1.97,0.54 -3.04,0.83 -3.04,0.83 -3.65,3.09 -6.77,6.04 -9.45,8.84 0,0.01 -0.01,0.03 -0.01,0.03 -0.01,0 -0,0.02 -0.02,0.02 -9.68,10.22 -13.11,18.6 -12.88,25.44 -8.19,29.75 26.11,27.91 33.26,27.2 43.18,-25.1 269.93,-150 317.37,-33.49z"/>
   <path class="fil5" d="M24.65 3433.5c-1.86,6.45 -4.55,12.39 -7.86,17.66l0 -70.69c10.03,13.3 13.57,33.16 7.86,53.03z"/>
   <path class="fil5" d="M136.38 2918.56c-8.72,30.29 -35.67,49.14 -60.2,42.08 -24.52,-7.06 -37.34,-37.34 -28.62,-67.63 8.72,-30.29 35.66,-49.13 60.19,-42.07 24.52,7.06 37.34,37.34 28.63,67.63z"/>
  </g>
 </g>
</svg>
