<?xml version="1.0" encoding="UTF-8"?>
<!DOCTYPE svg PUBLIC "-//W3C//DTD SVG 1.1//EN" "http://www.w3.org/Graphics/SVG/1.1/DTD/svg11.dtd">
<!-- Creator: CorelDRAW 2020 (64 Bit) -->
<svg xmlns="http://www.w3.org/2000/svg" xml:space="preserve" width="45.0012mm" height="17.2425mm" version="1.1" style="shape-rendering:geometricPrecision; text-rendering:geometricPrecision; image-rendering:optimizeQuality; fill-rule:evenodd; clip-rule:evenodd"
viewBox="0 0 541.05 207.31"
 xmlns:xlink="http://www.w3.org/1999/xlink"
 xmlns:xodm="http://www.corel.com/coreldraw/odm/2003">
 <defs>
  <style type="text/css">
   <![CDATA[
    .fil1 {fill:#FFF212;fill-rule:nonzero}
    .fil0 {fill:#91D8F7;fill-rule:nonzero}
   ]]>
  </style>
 </defs>
 <g id="Camada_x0020_1">
  <metadata id="CorelCorpID_0Corel-Layer"/>
  <polygon class="fil0" points="48.81,109.55 48.81,175.79 21.2,175.79 21.2,109.55 -0,109.55 -0,82.78 69.86,82.78 69.86,109.55 "/>
  <path class="fil1" d="M122.48 108.09l0 39.24c-3.11,0.52 -5.95,0.76 -8.51,0.76 -15.19,0 -27.82,-5.02 -37.96,-15.02 -10.14,-10 -15.19,-22.53 -15.19,-37.61 0,-14.67 5.12,-27.09 15.36,-37.3 10.21,-10.21 22.66,-15.33 37.33,-15.33 16.33,0 29.2,4.78 38.65,14.36 9.41,9.58 14.12,22.66 14.12,39.24l0 49.58 -37.99 0 0 -46.85c0,-5.33 -1.28,-9.58 -3.88,-12.77 -2.56,-3.15 -6.06,-4.74 -10.42,-4.74 -3.94,0 -7.37,1.45 -10.24,4.36 -2.87,2.91 -4.32,6.33 -4.32,10.31 0,4.19 1.32,7.65 3.91,10.35 2.63,2.7 5.95,4.05 9.96,4.05 3.29,0 6.37,-0.86 9.17,-2.63zm-31.69 -108.09c5.54,0 10.17,1.7 13.88,5.02 3.7,3.36 5.57,7.58 5.57,12.63 0,5.02 -1.97,9.38 -5.88,13.11 -3.91,3.77 -8.51,5.64 -13.77,5.64 -5.02,0 -9.38,-1.87 -13.11,-5.64 -3.77,-3.74 -5.64,-8.1 -5.64,-13.11 0,-4.81 1.87,-8.93 5.64,-12.42 3.74,-3.46 8.17,-5.23 13.32,-5.23zm50.66 0.21c5.54,0 10.17,1.7 13.88,5.02 3.7,3.36 5.57,7.58 5.57,12.63 0,5.02 -1.97,9.38 -5.88,13.11 -3.91,3.77 -8.51,5.64 -13.77,5.64 -5.02,0 -9.38,-1.87 -13.11,-5.64 -3.77,-3.74 -5.64,-8.1 -5.64,-13.11 0,-4.81 1.87,-8.93 5.64,-12.42 3.74,-3.46 8.17,-5.23 13.32,-5.23z"/>
  <path class="fil0" d="M196.42 147.78l0 23.38c-3.67,1.32 -7.18,1.98 -10.53,1.98 -8.2,0 -15.15,-3.11 -20.82,-9.32 -5.69,-6.21 -8.53,-13.8 -8.53,-22.78 0,-9.72 3.42,-17.9 10.25,-24.57 6.86,-6.67 15.25,-9.99 25.22,-9.99 5.3,0 10.37,1.07 15.22,3.21 4.83,2.11 8.65,4.97 11.41,8.58 4.62,5.93 6.93,14.55 6.93,25.85l0 22.34c0,12.13 -3.44,21.96 -10.3,29.52 -6.86,7.55 -15.78,11.34 -26.8,11.34 -3.35,0 -7.58,-0.84 -12.69,-2.53l0 -23.13c3.3,1.77 6.62,2.65 9.99,2.65 4.56,0 8.07,-1.51 10.55,-4.51 2.49,-3 3.72,-7.32 3.72,-12.92l0 -25.54c0,-7.14 -2.84,-10.71 -8.51,-10.71 -2.42,0 -4.53,0.95 -6.34,2.84 -1.81,1.88 -2.72,4.04 -2.72,6.51 0,2.58 0.86,4.74 2.6,6.49 1.72,1.72 3.86,2.58 6.42,2.58 1.72,0 3.35,-0.42 4.93,-1.23z"/>
  <polygon class="fil0" points="266.1,82.78 266.1,175.79 240.58,175.79 240.58,82.78 "/>
  <path class="fil0" d="M306.47 107.88l0 67.91 -25.52 0 0 -67.91 25.52 0zm-12.62 -30.26c3.46,0 6.44,1.21 8.97,3.65 2.53,2.42 3.79,5.3 3.79,8.62 0,3.53 -1.19,6.46 -3.58,8.72 -2.39,2.28 -5.44,3.42 -9.18,3.42 -3.72,0 -6.79,-1.14 -9.18,-3.42 -2.39,-2.25 -3.58,-5.18 -3.58,-8.72 0,-3.32 1.26,-6.21 3.79,-8.62 2.53,-2.44 5.51,-3.65 8.97,-3.65z"/>
  <path class="fil0" d="M363.08 144.53l25.26 -0.95c-0.72,9.78 -4.37,17.85 -10.95,24.15 -6.58,6.3 -14.6,9.46 -24.03,9.46 -9.99,0 -18.41,-3.46 -25.29,-10.41 -6.88,-6.95 -10.32,-15.46 -10.32,-25.52 0,-9.58 3.46,-17.76 10.41,-24.57 6.95,-6.81 15.27,-10.2 24.98,-10.2 8.48,0 15.97,2.67 22.47,8.02 6.49,5.37 10.53,12.18 12.11,20.48l-25.8 0.95c-2.23,-2.9 -5.04,-4.35 -8.44,-4.35 -2.9,0 -5.3,0.95 -7.16,2.86 -1.86,1.91 -2.79,4.32 -2.79,7.23 0,2.95 0.98,5.42 2.95,7.41 1.98,2 4.44,3 7.39,3 4.3,0 7.37,-2.51 9.18,-7.55z"/>
  <path class="fil0" d="M424.93 82.78l0 28.45c4.3,-3.16 8.6,-4.74 12.9,-4.74 6.53,0 11.69,2.37 15.53,7.09 3.84,4.74 5.74,11.11 5.74,19.18l0 43.04 -25.52 0 0 -35.91c0,-2.88 -0.3,-4.83 -0.91,-5.83 -0.6,-1 -1.77,-1.49 -3.51,-1.49 -2.81,0 -4.23,2.09 -4.23,6.3l0 36.93 -25.52 0 0 -93.01 25.52 0z"/>
  <path class="fil0" d="M540.72 145.95l-38.6 0c-0.53,-1.95 -0.81,-3.72 -0.81,-5.35 0,-2.26 0.39,-4.49 1.16,-6.65l12.95 0c-0.91,-5.11 -3.74,-7.67 -8.51,-7.67 -3.18,0 -5.77,1.35 -7.76,4.07 -2,2.7 -3,6.18 -3,10.41 0,4.42 0.95,7.97 2.88,10.71 1.93,2.72 4.46,4.09 7.6,4.09 2.53,0 5,-1.28 7.34,-3.84l14.5 17.45c-6.76,5.32 -14.29,8 -22.57,8 -10.06,0 -18.55,-3.39 -25.4,-10.16 -6.86,-6.79 -10.3,-15.15 -10.3,-25.17 0,-9.95 3.46,-18.36 10.39,-25.22 6.95,-6.86 15.46,-10.3 25.54,-10.3 9.85,0 18.15,3.35 24.85,10.06 6.72,6.69 10.06,14.94 10.06,24.78 0,1 -0.12,2.58 -0.33,4.76z"/>
 </g>
</svg>
