<?xml version="1.0" encoding="UTF-8"?>
<!DOCTYPE svg PUBLIC "-//W3C//DTD SVG 1.1//EN" "http://www.w3.org/Graphics/SVG/1.1/DTD/svg11.dtd">
<!-- Creator: CorelDRAW 2020 (64 Bit) -->
<svg xmlns="http://www.w3.org/2000/svg" xml:space="preserve" width="89.8466mm" height="89.6793mm" version="1.1" style="shape-rendering:geometricPrecision; text-rendering:geometricPrecision; image-rendering:optimizeQuality; fill-rule:evenodd; clip-rule:evenodd"
viewBox="0 0 5168.22 5158.6"
 xmlns:xlink="http://www.w3.org/1999/xlink"
 xmlns:xodm="http://www.corel.com/coreldraw/odm/2003">
 <defs>
  <style type="text/css">
   <![CDATA[
    .fil0 {fill:#10A1DB}
    .fil1 {fill:#0876A3}
    .fil4 {fill:#F89E50;fill-rule:nonzero}
    .fil3 {fill:#F9E8DD;fill-rule:nonzero}
    .fil2 {fill:#006F73;fill-rule:nonzero}
    .fil5 {fill:#075152;fill-rule:nonzero}
   ]]>
  </style>
 </defs>
 <g id="Camada_x0020_1">
  <metadata id="CorelCorpID_0Corel-Layer"/>
  <g id="_588928759696">
   <polygon class="fil0" points="-0,0 5168.22,0 5168.22,5158.6 -0,5158.6 "/>
   <polygon class="fil1" points="2250.07,5158.6 2852.1,1063.35 5168.22,3293.8 5168.22,5158.6 "/>
   <path class="fil2" d="M3070.38 3432.41c0,0 -234.06,1271.5 -432.08,1660.95 -13.14,25.84 -26.12,47.8 -38.86,65.24l1224.84 0 -17.78 -319.37 -736.12 -1406.82z"/>
   <path class="fil2" d="M2048.45 3492.97c0,0 235.99,1281.93 434.53,1665.63l-1185.06 0 14.41 -258.81 736.12 -1406.82z"/>
   <path class="fil3" d="M2032.76 3289.5c0,0 211.94,1287.61 467.72,1869.1l122.25 0c123.86,-401.7 450.62,-1508.03 418.17,-1898.93 -39.93,-481.28 -219.79,-192.63 -219.79,-192.63l-659.42 15.76 -128.93 206.71z"/>
   <polygon class="fil4" points="2081.6,3311.06 2130.46,3457.82 2482.78,3674.85 2951.26,3530.26 2980.7,3378.9 2977.87,3081.46 "/>
   <path class="fil2" d="M2056.35 3509.97c0,0 -854.02,481.13 -1038.9,458.47 0,0 -153.01,657.2 -309.2,1190.16l629.78 0 718.32 -1648.62z"/>
   <path class="fil5" d="M2016.68 3470.58c-14.76,34.45 10.7,459.13 10.7,459.13 0,0 1136.45,-438.06 1130.66,-417.93 -5.78,20.2 -88.23,526.77 -88.23,526.77l-1053.13 -567.98z"/>
   <path class="fil2" d="M3076.68 3507.02c0,0 892.31,405.72 1074.55,367.21 0,0 245.08,751.96 460.33,1284.37l-638.58 0 -896.3 -1651.58z"/>
   <path class="fil4" d="M2002.64 3150.38l191.1 284.28 318.03 79.17 319.46 -75.63 262.63 -270.36 128.97 -392.18 96.68 -144.08 -8.13 -33.11c0,0 44,-728.44 59.65,-738.05 15.65,-9.62 -346.26,-305 -346.26,-305l-299.16 -204.44 -468.78 73.82 -204.38 0.86 -272.42 249.79 12 239.77 -66.72 523.48 236.04 719.78 41.29 -8.1z"/>
   <path class="fil2" d="M2767.71 1573.84c-194.79,-74.34 -320.96,-244.32 -281.86,-379.63 39.18,-135.29 228.79,-184.73 423.58,-110.41 194.79,74.3 320.96,244.26 281.83,379.56 -39.13,135.32 -228.76,184.78 -423.55,110.48z"/>
   <path class="fil2" d="M2358.58 3158.87l294.15 -35.57 -69.63 124.55 23.81 121.28 136.86 69 216.66 -153.42 84.57 -112.73c0,0 201.2,-564.45 195.93,-659.56 -5.27,-95.08 87.26,300.68 87.26,300.68l-225.07 399.21 -308.28 304.53 -207.77 85.17 -283.62 -84.79 -213.38 -128.18 -140.93 -238.5 -194.17 -560.76 305.01 605.55 102.1 113.04 170.14 99.69 96.66 -18.98 27.36 -116.32 -97.65 -113.89z"/>
   <polygon class="fil2" points="3319.64,2828.25 3345.23,2546.92 3304.5,2437.81 3237.99,2689.02 "/>
   <path class="fil2" d="M3387.08 1798.37l-52.8 -94.31 -228.16 -288.95c-309.74,-384.13 -1047.33,-75.74 -1047.33,-75.74l-304.48 321.53c0,0 1.86,300.64 0.07,320.61 -1.81,19.99 -95.79,385.25 -95.79,385.25l62.98 255.15 62.61 75.01 9.9 32.82 -2.32 -33.85 35.26 -780.99 -29.83 -210.08 76.35 -47.72 257.81 -142.23 137.16 58.15 280.06 -28.81 48.85 -42.32 110.83 69.86 177.18 174.62 22.55 -30.63 142.33 201.09 190.13 -50.41 -11.2 466.81 -13.73 143.76 118.96 227.81 -5.43 -37.82 104.62 -136.6 -15.23 -659.64 -31.35 -72.38z"/>
  </g>
 </g>
</svg>
